<svg xmlns="http://www.w3.org/2000/svg" version="1.1" xmlns:xlink="http://www.w3.org/1999/xlink" xmlns:svgjs="http://svgjs.dev/svgjs" width="1500" height="950" viewBox="0 0 1500 950"><g transform="matrix(1,0,0,1,-0.3321064976988737,0.3846153846153584)"><svg viewBox="0 0 390 247" data-background-color="#ececea" preserveAspectRatio="xMidYMid meet" height="950" width="1500" xmlns="http://www.w3.org/2000/svg" xmlns:xlink="http://www.w3.org/1999/xlink"><g id="tight-bounds" transform="matrix(1,0,0,1,0.08634768940171966,-0.09999999999999432)"><svg viewBox="0 0 389.82730462119656 247.2" height="247.2" width="389.82730462119656"><g><svg viewBox="0 0 395.52 250.80989156213067" height="247.2" width="389.82730462119656"><g transform="matrix(1,0,0,1,0,155.0105749792161)"><svg viewBox="0 0 395.52 95.79931658291457" height="95.79931658291457" width="395.52"><g id="textblocktransform"><svg viewBox="0 0 395.52 95.79931658291457" height="95.79931658291457" width="395.52" id="textblock"><g><svg viewBox="0 0 395.52 95.79931658291457" height="95.79931658291457" width="395.52"><g transform="matrix(1,0,0,1,0,0)"><svg width="395.52" viewBox="1.85 -35.5 149.24 36.15" height="95.79931658291457" data-palette-color="#009b7d"><path d="M4.7-8.9Q4.85-7.2 5.98-5.65 7.1-4.1 9.08-3.13 11.05-2.15 13.6-2.15L13.6-2.15Q17.45-2.15 20.03-3.88 22.6-5.6 22.6-9.35L22.6-9.35Q22.6-11.55 21.35-13.03 20.1-14.5 18.25-15.38 16.4-16.25 13.2-17.4L13.2-17.4Q9.75-18.6 7.68-19.63 5.6-20.65 4.17-22.4 2.75-24.15 2.75-26.9L2.75-26.9Q2.75-29.1 4-31.08 5.25-33.05 7.78-34.27 10.3-35.5 14-35.5L14-35.5Q16.45-35.5 18.05-35.15 19.65-34.8 21.3-34L21.3-34 20.45-31.35Q17.6-32.8 14.1-32.8L14.1-32.8Q10.25-32.8 7.95-31.2 5.65-29.6 5.65-26.75L5.65-26.75Q5.65-24.95 6.8-23.73 7.95-22.5 9.63-21.75 11.3-21 14.3-19.95L14.3-19.95Q17.95-18.7 20.2-17.63 22.45-16.55 24.03-14.58 25.6-12.6 25.6-9.6L25.6-9.6Q25.6-5 22.68-2.23 19.75 0.55 13.65 0.55L13.65 0.55Q9.95 0.55 7.33-0.83 4.7-2.2 3.33-4.38 1.95-6.55 1.85-8.9L1.85-8.9 4.7-8.9ZM49.4-1.15Q44.95 0.5 41.1 0.5L41.1 0.5Q36.75 0.5 34.05-1.8 31.35-4.1 31.35-9.15L31.35-9.15 31.35-25.2Q31.35-29 32.42-30.95 33.5-32.9 35.7-34.25L35.7-34.25Q37.9-35.5 41.1-35.5L41.1-35.5Q45-35.5 48.15-33.85L48.15-33.85 47.35-31.95Q44.5-33 41.95-33L41.95-33Q38.9-33 36.52-31.5 34.15-30 34.15-25.65L34.15-25.65 34.15-9.25Q34.15-5.8 35.95-3.93 37.75-2.05 41.35-2.05L41.35-2.05Q44.5-2.05 48.8-3.5L48.8-3.5 49.4-1.15ZM53.74 0L53.74-35 70.44-35 70.44-32.4 56.55-32.4 56.55-20.65 66.09-20.65 65.14-17.9 56.55-17.9 56.55-2.5 70.34-2.5 70.34 0 53.74 0ZM98.79 0L79.79-29.85 79.79 0 76.99 0 76.99-35 79.79-35 98.79-5.15 98.79-35 101.59-35 101.59 0 98.79 0ZM109.49 0L109.49-35 126.19-35 126.19-32.4 112.29-32.4 112.29-20.65 121.84-20.65 120.89-17.9 112.29-17.9 112.29-2.5 126.09-2.5 126.09 0 109.49 0ZM134.44-32.15Q133.79-32.15 133.26-32.68 132.74-33.2 132.74-33.85L132.74-33.85Q132.74-34.5 133.24-35 133.74-35.5 134.44-35.5L134.44-35.5Q135.14-35.5 135.61-35.02 136.09-34.55 136.09-33.85L136.09-33.85Q136.09-33.15 135.59-32.65 135.09-32.15 134.44-32.15L134.44-32.15ZM132.99 0L132.99-25.05 135.79-25.05 135.79 0 132.99 0ZM147.59 0.65Q144.78-0.15 143.53-1.9 142.28-3.65 142.28-6.6L142.28-6.6 142.28-35 145.09-35 145.09-25.05 151.09-25.05 149.89-22.4 145.09-22.4 145.09-6.6Q145.09-2.6 148.39-1.5L148.39-1.5 147.59 0.65Z" opacity="1" transform="matrix(1,0,0,1,0,0)" fill="#009b7d" class="wordmark-text-0" data-fill-palette-color="primary" id="text-0"></path></svg></g></svg></g></svg></g></svg></g><g transform="matrix(1,0,0,1,127.04811097050042,0)"><svg viewBox="0 0 141.42377805899915 132.39465551758795" height="132.39465551758795" width="141.42377805899915"><g><svg xmlns="http://www.w3.org/2000/svg" xmlns:xlink="http://www.w3.org/1999/xlink" version="1.1" x="0" y="0" viewBox="5 7.872999999999999 90 84.254" enable-background="new 0 0 100 100" xml:space="preserve" height="132.39465551758795" width="141.42377805899915" class="icon-icon-0" data-fill-palette-color="accent" id="icon-0"><g fill="#ffbf5d" data-fill-palette-color="accent"><path fill="#ffbf5d" d="M60.532 7.873c-8.872 0-16.168 6.702-17.122 15.319h-4.058c-0.954-8.617-8.247-15.319-17.118-15.319C12.712 7.873 5 15.588 5 25.106c0 9.518 7.712 17.234 17.234 17.234 8.198 0 15.046-5.733 16.792-13.404h4.709c1.747 7.671 8.595 13.404 16.797 13.404 9.518 0 17.233-7.716 17.233-17.234C77.766 15.588 70.05 7.873 60.532 7.873" data-fill-palette-color="accent"></path><path fill="#ffbf5d" d="M91.17 40.425c-2.116 0-3.829 1.717-3.829 3.83v2.461l-10.103 2.887c-0.822 0.234-1.388 0.987-1.388 1.84v8.6c0 0.856 0.565 1.606 1.388 1.842l10.103 2.887v2.461c0 2.113 1.713 3.83 3.829 3.83 2.113 0 3.83-1.717 3.83-3.83V44.255C95 42.142 93.283 40.425 91.17 40.425" data-fill-palette-color="accent"></path><path fill="#ffbf5d" d="M41.383 37.837c-4.144 6.279-11.22 10.248-19.148 10.248-4.189 0-8.104-1.145-11.489-3.108v18.427c0 2.115 1.713 3.83 3.829 3.83h15.548L10.745 86.697v5.43h5.396l24.793-24.894h0.976l24.789 24.894h5.322v-5.513L52.719 67.234h15.473c2.113 0 3.83-1.715 3.83-3.83V44.977c-3.389 1.963-7.305 3.108-11.489 3.108C52.6 48.085 45.523 44.117 41.383 37.837" data-fill-palette-color="accent"></path></g></svg></g></svg></g><g></g></svg></g><defs></defs></svg><rect width="389.82730462119656" height="247.2" fill="none" stroke="none" visibility="hidden"></rect></g></svg></g></svg>