<svg xmlns="http://www.w3.org/2000/svg" version="1.1" xmlns:xlink="http://www.w3.org/1999/xlink" xmlns:svgjs="http://svgjs.dev/svgjs" width="1500" height="1043" viewBox="0 0 1500 1043"><g transform="matrix(1,0,0,1,0.4637756172800209,0.4222672064777271)"><svg viewBox="0 0 355 247" data-background-color="#ececea" preserveAspectRatio="xMidYMid meet" height="1043" width="1500" xmlns="http://www.w3.org/2000/svg" xmlns:xlink="http://www.w3.org/1999/xlink"><g id="tight-bounds" transform="matrix(1,0,0,1,-0.10976022942293184,-0.09999999999999432)"><svg viewBox="0 0 355.21952045884586 247.2" height="247.2" width="355.21952045884586"><g><svg viewBox="0 0 395.52 275.24541408564704" height="247.2" width="355.21952045884586"><g transform="matrix(1,0,0,1,0,170.11270820329412)"><svg viewBox="0 0 395.52 105.13270588235294" height="105.13270588235294" width="395.52"><g id="textblocktransform"><svg viewBox="0 0 395.52 105.13270588235294" height="105.13270588235294" width="395.52" id="textblock"><g><svg viewBox="0 0 395.52 105.13270588235294" height="105.13270588235294" width="395.52"><g transform="matrix(1,0,0,1,0,0)"><svg width="395.52" viewBox="1.85 -35.5 135.99 36.15" height="105.13270588235294" data-palette-color="#0087b0"><path d="M4.7-8.9Q4.85-7.2 5.98-5.65 7.1-4.1 9.08-3.13 11.05-2.15 13.6-2.15L13.6-2.15Q17.45-2.15 20.03-3.88 22.6-5.6 22.6-9.35L22.6-9.35Q22.6-11.55 21.35-13.03 20.1-14.5 18.25-15.38 16.4-16.25 13.2-17.4L13.2-17.4Q9.75-18.6 7.68-19.63 5.6-20.65 4.17-22.4 2.75-24.15 2.75-26.9L2.75-26.9Q2.75-29.1 4-31.08 5.25-33.05 7.78-34.27 10.3-35.5 14-35.5L14-35.5Q16.45-35.5 18.05-35.15 19.65-34.8 21.3-34L21.3-34 20.45-31.35Q17.6-32.8 14.1-32.8L14.1-32.8Q10.25-32.8 7.95-31.2 5.65-29.6 5.65-26.75L5.65-26.75Q5.65-24.95 6.8-23.73 7.95-22.5 9.63-21.75 11.3-21 14.3-19.95L14.3-19.95Q17.95-18.7 20.2-17.63 22.45-16.55 24.03-14.58 25.6-12.6 25.6-9.6L25.6-9.6Q25.6-5 22.68-2.23 19.75 0.55 13.65 0.55L13.65 0.55Q9.95 0.55 7.33-0.83 4.7-2.2 3.33-4.38 1.95-6.55 1.85-8.9L1.85-8.9 4.7-8.9ZM45.95-0.3Q42.85 0.5 39.95 0.5L39.95 0.5Q37.25 0.5 35.45-0.1L35.45-0.1Q32.5-1.1 31.17-3.18 29.85-5.25 29.85-9L29.85-9 29.85-15.4Q29.85-20.35 32.45-22.93 35.05-25.5 39.15-25.5L39.15-25.5Q42.4-25.5 45.85-23.9L45.85-23.9 45.05-21.85Q42.2-23 39.55-23L39.55-23Q36.45-23 34.55-21.23 32.65-19.45 32.65-15.7L32.65-15.7 32.65-8.45Q32.65-5 34.72-3.45 36.8-1.9 40.25-1.9L40.25-1.9Q42.5-1.9 45.35-2.55L45.35-2.55 45.95-0.3ZM65.7-1.75Q63.9-0.6 61.6 0 59.3 0.6 57 0.6L57 0.6Q53.3 0.6 51.12-1.23 48.95-3.05 48.95-6.7L48.95-6.7 48.95-16.95Q48.95-21 51.47-23.25 54-25.5 58.15-25.5L58.15-25.5Q62.3-25.5 64.62-23.28 66.95-21.05 66.95-17.1L66.95-17.1 66.95-10.6 51.75-9.75 51.75-6.7Q51.75-4.3 53.3-3.1 54.85-1.9 57.35-1.9L57.35-1.9Q60.85-1.9 64.6-3.9L64.6-3.9 65.7-1.75ZM64.15-17.45Q64.15-20.55 62.2-21.83 60.25-23.1 58.1-23.1L58.1-23.1Q55.35-23.1 53.55-21.6 51.75-20.1 51.75-16.9L51.75-16.9 51.75-12.5 64.15-13.1 64.15-17.45ZM87.79 0L87.79-17.15Q87.79-20.2 86.02-21.58 84.24-22.95 81.44-22.95L81.44-22.95Q79.74-22.95 77.99-22.48 76.24-22 74.89-21.25L74.89-21.25 74.89 0 72.09 0 72.09-25.05 74.89-25.05 74.69-23.35Q75.89-24.4 77.74-24.93 79.59-25.45 81.59-25.45L81.59-25.45Q84.34-25.45 86.29-24.55L86.29-24.55Q88.29-23.65 89.42-21.85 90.54-20.05 90.54-17.3L90.54-17.3 90.54 0 87.79 0ZM112.39-1.75Q110.59-0.6 108.29 0 105.99 0.6 103.69 0.6L103.69 0.6Q99.99 0.6 97.82-1.23 95.64-3.05 95.64-6.7L95.64-6.7 95.64-16.95Q95.64-21 98.17-23.25 100.69-25.5 104.84-25.5L104.84-25.5Q108.99-25.5 111.32-23.28 113.64-21.05 113.64-17.1L113.64-17.1 113.64-10.6 98.44-9.75 98.44-6.7Q98.44-4.3 99.99-3.1 101.54-1.9 104.04-1.9L104.04-1.9Q107.54-1.9 111.29-3.9L111.29-3.9 112.39-1.75ZM110.84-17.45Q110.84-20.55 108.89-21.83 106.94-23.1 104.79-23.1L104.79-23.1Q102.04-23.1 100.24-21.6 98.44-20.1 98.44-16.9L98.44-16.9 98.44-12.5 110.84-13.1 110.84-17.45ZM121.19-32.15Q120.54-32.15 120.01-32.68 119.49-33.2 119.49-33.85L119.49-33.85Q119.49-34.5 119.99-35 120.49-35.5 121.19-35.5L121.19-35.5Q121.89-35.5 122.36-35.02 122.84-34.55 122.84-33.85L122.84-33.85Q122.84-33.15 122.34-32.65 121.84-32.15 121.19-32.15L121.19-32.15ZM119.74 0L119.74-25.05 122.54-25.05 122.54 0 119.74 0ZM134.34 0.65Q131.54-0.15 130.29-1.9 129.04-3.65 129.04-6.6L129.04-6.6 129.04-35 131.84-35 131.84-25.05 137.84-25.05 136.64-22.4 131.84-22.4 131.84-6.6Q131.84-2.6 135.14-1.5L135.14-1.5 134.34 0.65Z" opacity="1" transform="matrix(1,0,0,1,0,0)" fill="#0087b0" class="wordmark-text-0" data-fill-palette-color="primary" id="text-0"></path></svg></g></svg></g></svg></g></svg></g><g transform="matrix(1,0,0,1,120.1589011937293,0)"><svg viewBox="0 0 155.20219761254137 145.29339952941177" height="145.29339952941177" width="155.20219761254137"><g><svg xmlns="http://www.w3.org/2000/svg" xml:space="preserve" viewBox="5 7.872999999999999 90.00000000000001 84.254" x="0" y="0" height="145.29339952941177" width="155.20219761254137" class="icon-icon-0" data-fill-palette-color="accent" id="icon-0"><path d="M60.532 7.873c-8.872 0-16.168 6.702-17.122 15.319h-4.058c-0.954-8.617-8.247-15.319-17.118-15.319C12.712 7.873 5 15.588 5 25.106S12.712 42.34 22.234 42.34c8.198 0 15.046-5.733 16.792-13.404h4.709c1.747 7.671 8.595 13.404 16.797 13.404 9.518 0 17.233-7.716 17.233-17.234 0.001-9.518-7.715-17.233-17.233-17.233M91.17 40.425a3.83 3.83 0 0 0-3.829 3.83v2.461l-10.103 2.887a1.914 1.914 0 0 0-1.388 1.84v8.6c0 0.856 0.565 1.606 1.388 1.842l10.103 2.887v2.461a3.83 3.83 0 0 0 7.659 0V44.255a3.833 3.833 0 0 0-3.83-3.83" fill="#ff9d00" data-fill-palette-color="accent"></path><path d="M41.383 37.837c-4.144 6.279-11.22 10.248-19.148 10.248a22.8 22.8 0 0 1-11.489-3.108v18.427a3.83 3.83 0 0 0 3.829 3.83h15.548L10.745 86.697v5.43h5.396l24.793-24.894h0.976l24.789 24.894h5.322v-5.513l-19.302-19.38h15.473a3.83 3.83 0 0 0 3.83-3.83V44.977c-3.389 1.963-7.305 3.108-11.489 3.108-7.933 0-15.01-3.968-19.15-10.248" fill="#ff9d00" data-fill-palette-color="accent"></path></svg></g></svg></g><g></g></svg></g><defs></defs></svg><rect width="355.21952045884586" height="247.2" fill="none" stroke="none" visibility="hidden"></rect></g></svg></g></svg>